<svg width="64" height="64" viewBox="0 0 64 64" fill="none" xmlns="http://www.w3.org/2000/svg">
  <rect width="64" height="64" rx="14" fill="#0A6C5F"/>
  <circle cx="32" cy="32" r="22" fill="#F4E7C5"/>
  <path d="M21 24C21 21.7909 22.7909 20 25 20H39C41.2091 20 43 21.7909 43 24V40C43 42.2091 41.2091 44 39 44H25C22.7909 44 21 42.2091 21 40V24Z" fill="#0A6C5F"/>
  <path d="M26 28C26 26.8954 26.8954 26 28 26H36C37.1046 26 38 26.8954 38 28V36C38 37.1046 37.1046 38 36 38H28C26.8954 38 26 37.1046 26 36V28Z" fill="#D4A017"/>
  <path d="M29.5 22L33.5 42" stroke="#F4E7C5" stroke-width="2.5" stroke-linecap="round"/>
  <path d="M34.5 22L30.5 42" stroke="#F4E7C5" stroke-width="2.5" stroke-linecap="round"/>
</svg>
